<?xml version="1.0" encoding="UTF-8" standalone="no"?> <svg xmlns:dc="http://purl.org/dc/elements/1.1/" xmlns:cc="http://creativecommons.org/ns#" xmlns:rdf="http://www.w3.org/1999/02/22-rdf-syntax-ns#" xmlns:svg="http://www.w3.org/2000/svg" xmlns="http://www.w3.org/2000/svg" xmlns:sodipodi="http://sodipodi.sourceforge.net/DTD/sodipodi-0.dtd" xmlns:inkscape="http://www.inkscape.org/namespaces/inkscape" id="svg2" xml:space="preserve" width="1481.3333" height="1481.3333" viewBox="0 0 1481.3333 1481.3333" sodipodi:docname="27d26873930bb723a9e1ee6de6f5d761.eps"> <metadata id="metadata8"></metadata> <defs id="defs6"></defs> <g id="g10" inkscape:groupmode="layer" inkscape:label="ink_ext_XXXXXX" transform="matrix(1.3333333,0,0,-1.3333333,0,1481.3333)"> <g id="g12" transform="scale(0.1)"> <path d="m 4123.8,9046.3 c 905.1,378.3 1963.7,382.4 2866.3,-5.9 978.4,-403.6 1756.1,-1254.3 2084.1,-2259.1 197.5,-607.9 238.9,-1266.3 112.2,-1893.2 -87.5,-444.2 -257.3,-872 -501,-1253.7 -213.5,-336 -476.7,-642.5 -787.5,-892.2 -486.2,-393.8 -1069.8,-672.1 -1688.3,-776.5 -169.6,-45.5 -346.7,-37.3 -519.9,-56.7 -210.5,-21.2 -420.8,12.9 -630.6,26.7 -413.1,58.7 -819.2,179.5 -1189.5,373.1 -34.6,17.4 -69.3,37.2 -108.1,42.9 -56.3,-1.7 -110.3,-20 -163.2,-37.6 -560.4,-188 -1127.8,-354.2 -1687.9,-542.8 -70.4,-25.2 -144.8,-36.5 -215.6,-60.5 69,141.7 102.5,296.8 160.1,442.9 160.8,482.2 321.3,964.5 484.8,1445.7 9.2,41.6 38,85.7 18.5,128.1 -192.5,325.7 -335.3,681.1 -419.6,1050 -76.2,324.7 -97.4,660.1 -88.3,992.7 7.5,239.1 36.3,478 94.7,710.2 143,623.1 459.2,1202.8 894.3,1670 357.5,386 799.7,692 1284.5,895.9 M 5047.7,8657 C 4649.7,8596.2 4267.4,8445.9 3927,8232.3 3483.5,7953.1 3109.5,7562.4 2856.6,7102.9 2664.4,6766.6 2553,6389.3 2497,6007.5 c -16.1,-231.4 -30.8,-464.3 -9.1,-695.8 9.7,-98.3 28.1,-195.5 45.3,-292.8 72.9,-376 222.7,-735.5 427.6,-1058.6 32.5,-52.3 79,-99 91.2,-161.5 -9.2,-86.4 -49.9,-165 -76,-246.9 -95.6,-291.6 -201.6,-579.9 -285.4,-875.2 175.2,48.2 345.5,111.8 519.2,164.9 216.3,69.6 433.9,135.1 648.8,209 375.1,-256.4 812.1,-416.2 1260.2,-484.6 369.8,-35.7 747,-36.2 1111.1,45.4 521.6,121.9 1014.1,376.7 1405,744.3 146.5,140.9 287.6,288.8 406.2,454.3 145.6,200.5 265.1,419.5 360,648.2 106.9,251.5 168.8,520.2 204.3,790.5 89.6,701.1 -80,1430.4 -461.2,2024.8 -186.6,294.7 -427.6,552.8 -699.6,770.4 -576.3,455.9 -1321.5,690.2 -2054.8,654 -115.2,-2.8 -227.4,-32.5 -342.1,-40.9 M 3938.1,7201.3 c 89.9,101 187.5,220.3 331.2,236.4 103.6,3.8 208.3,-2.4 310.3,-21.7 54.9,-9 84.6,-62.2 108.4,-107 58.4,-124.2 98.5,-256 144.6,-385.1 43.8,-127.2 100.1,-249.8 140.9,-378.1 12.4,-41.2 33,-84 19.9,-127.8 -27.5,-121.5 -122.2,-209.3 -202.3,-298.4 -41.4,-48.7 -95.9,-87.7 -124.6,-146.1 -13.4,-26.4 -10.6,-58.1 4.4,-83.2 173.2,-331.7 409.4,-633.2 704.7,-864.7 159.5,-123.6 334,-227 515.7,-314.4 44.3,-19.7 87.6,-48.7 138.2,-46.6 28.2,-1.7 54.7,12.3 73.8,32.3 84,83.2 160.9,173.3 238.7,262.2 51.4,60.5 93.6,133 164.2,173.7 62,26.6 125.6,-12.1 182.9,-34 163.2,-82 323.9,-169 485,-255.2 104,-57.5 213.2,-107.4 306.3,-182.5 -4.2,-196.1 -23.8,-410.4 -156.2,-566.2 -242.8,-266.9 -632.8,-390.6 -985,-310.8 -76.9,16.8 -149.5,47.8 -224.1,72.4 -338.9,120.4 -676.3,258.8 -970.8,468.5 -443.5,320.7 -802.7,745.8 -1089.2,1209.5 -118,177.8 -223,366.5 -288.8,570.3 -51.6,155.5 -73.7,320.3 -67.3,483.8 10,223.1 95.6,441.8 239.1,612.7" style="fill:#00ac4c;fill-opacity:1;fill-rule:nonzero;stroke:none" id="path14"></path> </g> </g> </svg> 